<?xml version="1.0" encoding="UTF-8"?>
<!DOCTYPE svg PUBLIC "-//W3C//DTD SVG 1.1//EN" "http://www.w3.org/Graphics/SVG/1.1/DTD/svg11.dtd">
<!-- Creator: CorelDRAW -->
<svg xmlns="http://www.w3.org/2000/svg" xml:space="preserve" width="16px" height="16px" version="1.1" style="shape-rendering:geometricPrecision; text-rendering:geometricPrecision; image-rendering:optimizeQuality; fill-rule:evenodd; clip-rule:evenodd"
viewBox="0 0 1600000 1600000"
 xmlns:xlink="http://www.w3.org/1999/xlink"
 xmlns:xodm="http://www.corel.com/coreldraw/odm/2003">
 <defs>
  <style type="text/css">
   <![CDATA[
    .fil0 {fill:#BBC5D0}
    .fil1 {fill:black}
    .fil5 {fill:#4F4F4E}
    .fil3 {fill:#8B97A3}
    .fil4 {fill:#C5CED6}
    .fil2 {fill:#EFEFEF}
   ]]>
  </style>
 </defs>
 <g id="Слой_x0020_1">
  <metadata id="CorelCorpID_0Corel-Layer"/>
  <path class="fil0" d="M517000 399000c-6000,-35000 -16000,-60000 4000,-93000 13000,-22000 35000,-35000 69000,-39000l423000 0c34000,5000 54000,19000 67000,41000 20000,35000 7000,54000 4000,89000 32000,16000 54000,21000 82000,40000 72000,50000 122000,128000 137000,223000 10000,68000 13000,151000 18000,221000 3000,37000 6000,74000 9000,111000 4000,52000 12000,68000 -41000,76000 -7000,87000 -49000,88000 -133000,88000 1000,42000 2000,84000 -17000,117000 -15000,24000 -42000,49000 -78000,57000 -45000,10000 -204000,3000 -261000,3000 -56000,0 -222000,7000 -264000,-3000 -35000,-9000 -61000,-34000 -76000,-59000 -18000,-32000 -17000,-74000 -16000,-115000 -84000,0 -126000,-1000 -133000,-88000 -52000,-8000 -45000,-23000 -41000,-73000 3000,-38000 6000,-76000 9000,-114000 5000,-69000 8000,-153000 18000,-221000 19000,-119000 110000,-239000 220000,-261000zm-417000 404000c0,234000 35000,459000 153000,616000 12000,16000 22000,25000 34000,41000 8000,10000 11000,10000 20000,17000 64000,57000 145000,98000 256000,98000 51000,0 109000,-20000 147000,-34000 23000,-9000 43000,-15000 66000,-24000l101000 -37000c236000,-82000 355000,-53000 433000,-76000 42000,-13000 85000,-45000 108000,-76000 7000,-9000 12000,-16000 19000,-26000 121000,-200000 45000,-525000 -43000,-721000 -130000,-288000 -371000,-556000 -716000,-556000 -134000,0 -245000,55000 -336000,126000 -103000,81000 -175000,223000 -206000,348000 -24000,97000 -36000,201000 -36000,304000l0 0z"/>
  <path class="fil1" d="M578000 1200000l511000 0c0,52000 -25000,67000 -76000,67000l-418000 0c-25000,-1000 -45000,3000 -62000,-12000 -16000,-14000 -22000,-26000 -22000,-55000l67000 0zm578000 -133000l66000 0c0,19000 -2000,22000 -22000,22000l-44000 0 0 -22000zm-777000 0l65000 0 0 22000 -44000 0c-20000,0 -22000,-2000 -21000,-22000zm23000 -67000l-66000 0c4000,-60000 10000,-121000 14000,-181000 5000,-53000 6000,-122000 18000,-173000 17000,-71000 61000,-129000 123000,-165000 13000,-7000 58000,-34000 65000,-14000 12000,8000 21000,18000 30000,28000 11000,11000 19000,17000 31000,26000 89000,61000 72000,-8000 72000,157000l66000 -1000 1000 -102000c34000,3000 53000,2000 87000,0 7000,13000 3000,246000 3000,279000l62000 0 0 -263000c0,-6000 0,-14000 0,-19000 0,-5000 0,-5000 1000,-10000 1000,-1000 2000,-1000 2000,-3000 0,-1000 1000,-1000 1000,-2000 19000,-3000 63000,-31000 77000,-40000 13000,-10000 20000,-17000 31000,-28000 9000,-8000 21000,-24000 30000,-31000 92000,17000 164000,104000 184000,196000 9000,42000 26000,287000 30000,346000l-108000 0 -2000 -267000 -65000 1000 2000 399000 -579000 0 -2000 -400000 -65000 1000 -1000 266000 -42000 0 0 0zm479000 -503000c14000,-31000 37000,-68000 54000,-99000 12000,-23000 57000,-91000 85000,-59000 25000,28000 -52000,138000 -139000,158000zm-231000 -122000c7000,5000 37000,60000 40000,72000 6000,5000 26000,43000 29000,50000 -37000,-8000 -72000,-35000 -97000,-60000 -13000,-13000 -24000,-24000 -34000,-44000 -41000,-81000 37000,-74000 62000,-18000l0 0zm150000 118000c-19000,-18000 -84000,-137000 -95000,-160000l189000 0c-10000,24000 -75000,140000 -94000,160000zm-283000 -94000c-110000,22000 -201000,142000 -220000,261000 -10000,68000 -13000,152000 -18000,221000 -3000,38000 -6000,76000 -9000,114000 -4000,50000 -11000,65000 41000,73000 7000,87000 49000,88000 133000,88000 -1000,41000 -2000,83000 16000,115000 15000,25000 41000,50000 76000,59000 42000,10000 208000,3000 264000,3000 57000,0 216000,7000 261000,-3000 36000,-8000 63000,-33000 78000,-57000 19000,-33000 18000,-75000 17000,-117000 84000,0 126000,-1000 133000,-88000 53000,-8000 45000,-24000 41000,-76000 -3000,-37000 -6000,-74000 -9000,-111000 -5000,-70000 -8000,-153000 -18000,-221000 -15000,-95000 -65000,-173000 -137000,-223000 -28000,-19000 -50000,-24000 -82000,-40000 3000,-35000 16000,-54000 -4000,-89000 -13000,-22000 -33000,-36000 -67000,-41000l-423000 0c-34000,4000 -56000,17000 -69000,39000 -20000,33000 -10000,58000 -4000,93000z"/>
  <path class="fil2" d="M912000 557000l-1000 299000 -68000 0 0 -281000c-34000,2000 -53000,3000 -87000,0l-1000 102000 -66000 1000c0,-165000 17000,-96000 -72000,-157000 -12000,-9000 -20000,-15000 -31000,-26000 -9000,-10000 -18000,-20000 -30000,-28000 -19000,0 -58000,46000 -69000,60000 -33000,46000 -51000,93000 -59000,154000 -13000,102000 -18000,216000 -26000,319000l42000 0 1000 -266000 65000 -1000 2000 400000 579000 0 -2000 -399000 65000 -1000 2000 267000 108000 0c-4000,-59000 -21000,-304000 -30000,-346000 -20000,-92000 -92000,-179000 -184000,-196000 -9000,7000 -21000,23000 -30000,31000 -11000,11000 -18000,18000 -31000,28000 -14000,9000 -58000,37000 -77000,40000l0 0z"/>
  <path class="fil3" d="M402000 1000000c8000,-103000 13000,-217000 26000,-319000 8000,-61000 26000,-108000 59000,-154000 11000,-14000 50000,-60000 69000,-60000 -7000,-20000 -52000,7000 -65000,14000 -62000,36000 -106000,94000 -123000,165000 -12000,51000 -13000,120000 -18000,173000 -4000,60000 -10000,121000 -14000,181000l66000 0 0 0z"/>
  <path class="fil4" d="M595000 1267000l418000 0c51000,0 76000,-15000 76000,-67000l-511000 0c0,38000 5000,40000 17000,67000l0 0z"/>
  <path class="fil4" d="M800000 493000c19000,-20000 84000,-136000 94000,-160000l-189000 0c11000,23000 76000,142000 95000,160000z"/>
  <path class="fil4" d="M881000 497000c87000,-20000 164000,-130000 139000,-158000 -28000,-32000 -73000,36000 -85000,59000 -17000,31000 -40000,68000 -54000,99000z"/>
  <path class="fil3" d="M690000 447000c-3000,3000 2000,9000 -8000,-4000l-19000 -28000c-3000,-4000 -23000,-40000 -13000,-40000 -25000,-56000 -103000,-63000 -62000,18000 10000,20000 21000,31000 34000,44000 25000,25000 60000,52000 97000,60000 -3000,-7000 -23000,-45000 -29000,-50000z"/>
  <path class="fil3" d="M595000 1267000c-12000,-27000 -17000,-29000 -17000,-67000l-67000 0c0,29000 6000,41000 22000,55000 17000,15000 37000,11000 62000,12000l0 0z"/>
  <path class="fil5" d="M843000 575000l0 281000 68000 0 1000 -299000c0,1000 -1000,1000 -1000,2000 0,2000 -1000,2000 -2000,3000 -1000,5000 -1000,5000 -1000,10000 0,5000 0,13000 0,19000l0 263000 -62000 0c0,-33000 4000,-266000 -3000,-279000l0 0z"/>
  <path class="fil4" d="M1156000 1089000l44000 0c20000,0 22000,-3000 22000,-22000l-66000 0 0 22000z"/>
  <path class="fil3" d="M400000 1089000l44000 0 0 -22000 -65000 0c-1000,20000 1000,22000 21000,22000z"/>
  <path class="fil4" d="M690000 447000c-3000,-12000 -33000,-67000 -40000,-72000 -10000,0 10000,36000 13000,40000l19000 28000c10000,13000 5000,7000 8000,4000l0 0z"/>
 </g>
</svg>
