<?xml version="1.0" encoding="UTF-8"?>
<!DOCTYPE svg PUBLIC "-//W3C//DTD SVG 1.1//EN" "http://www.w3.org/Graphics/SVG/1.1/DTD/svg11.dtd">
<!-- Creator: CorelDRAW -->
<svg xmlns="http://www.w3.org/2000/svg" xml:space="preserve" width="16px" height="16px" version="1.1" style="shape-rendering:geometricPrecision; text-rendering:geometricPrecision; image-rendering:optimizeQuality; fill-rule:evenodd; clip-rule:evenodd"
viewBox="0 0 1600000 1600000"
 xmlns:xlink="http://www.w3.org/1999/xlink"
 xmlns:xodm="http://www.corel.com/coreldraw/odm/2003">
 <defs>
  <style type="text/css">
   <![CDATA[
    .fil0 {fill:black}
   ]]>
  </style>
 </defs>
 <g id="Слой_x0020_1">
  <metadata id="CorelCorpID_0Corel-Layer"/>
  <path class="fil0" d="M578000 1200000l511000 0c0,52000 -25000,67000 -76000,67000l-418000 0c-25000,-1000 -45000,3000 -62000,-12000 -16000,-14000 -22000,-26000 -22000,-55000l67000 0zm578000 -133000l66000 0c0,19000 -2000,22000 -22000,22000l-44000 0 0 -22000zm-777000 0l65000 0 0 22000 -44000 0c-20000,0 -22000,-2000 -21000,-22000zm23000 -67000l-66000 0c4000,-60000 10000,-121000 14000,-181000 5000,-53000 6000,-122000 18000,-173000 17000,-71000 61000,-129000 123000,-165000 13000,-7000 58000,-34000 65000,-14000 12000,8000 21000,18000 30000,28000 11000,11000 19000,17000 31000,26000 89000,61000 72000,-8000 72000,157000l66000 -1000 1000 -102000c34000,3000 53000,2000 87000,0 7000,13000 3000,246000 3000,279000l62000 0 0 -263000c0,-6000 0,-14000 0,-19000 0,-5000 0,-5000 1000,-10000 1000,-1000 2000,-1000 2000,-3000 0,-1000 1000,-1000 1000,-2000 19000,-3000 63000,-31000 77000,-40000 13000,-10000 20000,-17000 31000,-28000 9000,-8000 21000,-24000 30000,-31000 92000,17000 164000,104000 184000,196000 9000,42000 26000,287000 30000,346000l-108000 0 -2000 -267000 -65000 1000 2000 399000 -579000 0 -2000 -400000 -65000 1000 -1000 266000 -42000 0zm479000 -503000c14000,-31000 37000,-68000 54000,-99000 12000,-23000 57000,-91000 85000,-59000 25000,28000 -52000,138000 -139000,158000zm-231000 -122000c7000,5000 37000,60000 40000,72000 6000,5000 26000,43000 29000,50000 -37000,-8000 -72000,-35000 -97000,-60000 -13000,-13000 -24000,-24000 -34000,-44000 -41000,-81000 37000,-74000 62000,-18000zm150000 118000c-19000,-18000 -84000,-137000 -95000,-160000l189000 0c-10000,24000 -75000,140000 -94000,160000zm-283000 -94000c-110000,22000 -201000,142000 -220000,261000 -10000,68000 -13000,152000 -18000,221000 -3000,38000 -6000,76000 -9000,114000 -4000,50000 -11000,65000 41000,73000 7000,87000 49000,88000 133000,88000 -1000,41000 -2000,83000 16000,115000 15000,25000 41000,50000 76000,59000 42000,10000 208000,3000 264000,3000 57000,0 216000,7000 261000,-3000 36000,-8000 63000,-33000 78000,-57000 19000,-33000 18000,-75000 17000,-117000 84000,0 126000,-1000 133000,-88000 53000,-8000 45000,-24000 41000,-76000 -3000,-37000 -6000,-74000 -9000,-111000 -5000,-70000 -8000,-153000 -18000,-221000 -15000,-95000 -65000,-173000 -137000,-223000 -28000,-19000 -50000,-24000 -82000,-40000 3000,-35000 16000,-54000 -4000,-89000 -13000,-22000 -33000,-36000 -67000,-41000l-423000 0c-34000,4000 -56000,17000 -69000,39000 -20000,33000 -10000,58000 -4000,93000z"/>
 </g>
</svg>
